<svg width="80" height="80" viewBox="0 0 80 80" fill="none" xmlns="http://www.w3.org/2000/svg">
<g filter="url(#filter0_d_20005153_1458)">
<rect x="4" width="72" height="72" rx="8" fill="#F3F6FF" shape-rendering="crispEdges"/>
<g clip-path="url(#clip0_20005153_1458)">
<path d="M56.6041 39.9511C56.2806 39.1512 55.3698 38.7646 54.5698 39.0882C53.7698 39.4116 53.3834 40.3223 53.7068 41.1224L55.547 45.6744L50.0816 43.2651C49.6859 43.0907 49.2357 43.088 48.8381 43.2577C46.9702 44.0546 44.9693 44.4587 42.8909 44.4587C34.5258 44.4587 28.9065 37.9091 28.9065 31.7918C28.9065 24.8073 35.1799 19.125 42.8909 19.125C50.6019 19.125 56.8752 24.8073 56.8752 31.7918C56.8752 32.3368 56.8244 32.9893 56.7361 33.5819C56.6087 34.4354 57.1974 35.2305 58.0509 35.3579C58.9045 35.4855 59.6996 34.8965 59.8269 34.043C59.9387 33.2938 60.0002 32.4943 60.0002 31.7918C60.0002 27.5473 58.2029 23.5647 54.9391 20.5776C51.7139 17.6257 47.4351 16 42.8909 16C38.3467 16 34.0679 17.6257 30.8427 20.5775C27.9261 23.2469 26.1818 26.7115 25.8434 30.4474C22.1749 32.8768 20.0003 36.7696 20.0003 40.9628C20.0003 43.5822 20.8255 46.0675 22.3964 48.2063L20.1142 53.8518C19.8758 54.4413 20.0186 55.1166 20.4752 55.5592C20.7728 55.8478 21.1649 56 21.5631 56C21.7758 55.9999 21.9904 55.9566 22.193 55.8672L28.7734 52.9664C30.4287 53.5826 32.1785 53.8945 33.9846 53.8945C34.0236 53.8945 34.062 53.8915 34.1003 53.8887C36.7126 53.8689 39.2522 53.1818 41.4517 51.8959C43.4219 50.7441 45.0425 49.1617 46.1787 47.2931C47.288 47.0938 48.3722 46.7929 49.4245 46.3906L57.8074 50.0859C58.0101 50.1752 58.2246 50.2188 58.4373 50.2188C58.8355 50.2187 59.2277 50.0665 59.5253 49.778C59.9819 49.3353 60.1247 48.6602 59.8863 48.0706L56.6041 39.9511ZM33.9847 50.7656C33.9634 50.7656 33.9426 50.7679 33.9214 50.7688C32.326 50.7606 30.7904 50.447 29.3562 49.8352C28.9586 49.6654 28.5084 49.6681 28.1128 49.8426L24.4536 51.4556L25.634 48.5356C25.8522 47.9959 25.7522 47.3795 25.3745 46.9364C23.903 45.2101 23.1253 43.1446 23.1253 40.9628C23.1253 38.4659 24.1757 36.1 26.0135 34.3061C26.5857 37.4253 28.2001 40.409 30.6355 42.7529C33.6661 45.6696 37.6746 47.3592 42.0031 47.5627C39.971 49.5631 37.0628 50.7656 33.9847 50.7656Z" fill="#6366F1"/>
<path d="M42.8125 33.4219C43.6754 33.4219 44.375 32.7223 44.375 31.8594C44.375 30.9964 43.6754 30.2969 42.8125 30.2969C41.9496 30.2969 41.25 30.9964 41.25 31.8594C41.25 32.7223 41.9496 33.4219 42.8125 33.4219Z" fill="#D946EF"/>
<path d="M49.0625 33.4219C49.9254 33.4219 50.625 32.7223 50.625 31.8594C50.625 30.9964 49.9254 30.2969 49.0625 30.2969C48.1996 30.2969 47.5 30.9964 47.5 31.8594C47.5 32.7223 48.1996 33.4219 49.0625 33.4219Z" fill="#D946EF"/>
<path d="M36.5625 33.4219C37.4254 33.4219 38.125 32.7223 38.125 31.8594C38.125 30.9964 37.4254 30.2969 36.5625 30.2969C35.6996 30.2969 35 30.9964 35 31.8594C35 32.7223 35.6996 33.4219 36.5625 33.4219Z" fill="#D946EF"/>
</g>
</g>
<defs>
<filter id="filter0_d_20005153_1458" x="0" y="0" width="80" height="80" filterUnits="userSpaceOnUse" color-interpolation-filters="sRGB">
<feFlood flood-opacity="0" result="BackgroundImageFix"/>
<feColorMatrix in="SourceAlpha" type="matrix" values="0 0 0 0 0 0 0 0 0 0 0 0 0 0 0 0 0 0 127 0" result="hardAlpha"/>
<feOffset dy="4"/>
<feGaussianBlur stdDeviation="2"/>
<feComposite in2="hardAlpha" operator="out"/>
<feColorMatrix type="matrix" values="0 0 0 0 0 0 0 0 0 0 0 0 0 0 0 0 0 0 0.25 0"/>
<feBlend mode="normal" in2="BackgroundImageFix" result="effect1_dropShadow_20005153_1458"/>
<feBlend mode="normal" in="SourceGraphic" in2="effect1_dropShadow_20005153_1458" result="shape"/>
</filter>
<clipPath id="clip0_20005153_1458">
<rect width="40" height="40" fill="white" transform="translate(20 16)"/>
</clipPath>
</defs>
</svg>
