<svg width="121" height="44" viewBox="0 0 121 44" fill="none" xmlns="http://www.w3.org/2000/svg">
<g filter="url(#filter0_d_20005153_1356)">
<path d="M37.5994 16.8112H40.3332V27.425H37.5994V16.8112ZM41.4177 23.4175C41.4177 20.7925 43.0944 19.2262 45.6825 19.2262C48.2706 19.2262 49.9473 20.7925 49.9473 23.4175C49.9473 26.0425 48.307 27.6175 45.6825 27.6175C43.058 27.6175 41.4177 26.0862 41.4177 23.4175ZM47.2044 23.4175C47.2044 21.9737 46.612 21.125 45.6825 21.125C44.753 21.125 44.1698 22 44.1698 23.4175C44.1698 24.835 44.7439 25.6925 45.6825 25.6925C46.6211 25.6925 47.2044 24.8875 47.2044 23.4262V23.4175ZM50.9771 27.9412H53.6016C53.7266 28.2077 53.9377 28.4283 54.2037 28.5702C54.4697 28.712 54.7764 28.7677 55.0779 28.7287C56.1168 28.7287 56.6636 28.1862 56.6636 27.3987V25.9287H56.6089C56.3911 26.3793 56.0376 26.7567 55.5942 27.0126C55.1507 27.2684 54.6376 27.3907 54.1211 27.3637C52.1253 27.3637 50.804 25.9025 50.804 23.3912C50.804 20.88 52.0615 19.2962 54.1575 19.2962C54.6903 19.2762 55.2166 19.413 55.6662 19.6881C56.1157 19.9634 56.4669 20.364 56.6727 20.8362V19.375H59.4065V27.3375C59.4065 29.2537 57.6478 30.4437 55.0506 30.4437C52.6357 30.4437 51.132 29.4025 50.9771 27.95V27.9412ZM56.6727 23.4087C56.6727 22.1312 56.0621 21.3262 55.0961 21.3262C54.1302 21.3262 53.5378 22.1225 53.5378 23.4087C53.5378 24.695 54.1211 25.4212 55.0961 25.4212C56.0712 25.4212 56.6727 24.7125 56.6727 23.4175V23.4087ZM60.4363 23.4087C60.4363 20.7837 62.1131 19.2175 64.7011 19.2175C67.2892 19.2175 68.9751 20.7837 68.9751 23.4087C68.9751 26.0337 67.3348 27.6087 64.7011 27.6087C62.0675 27.6087 60.4363 26.0862 60.4363 23.4175V23.4087ZM66.223 23.4087C66.223 21.965 65.6307 21.1162 64.7011 21.1162C63.7716 21.1162 63.234 22 63.234 23.4262C63.234 24.8525 63.8081 25.7012 64.7376 25.7012C65.6671 25.7012 66.223 24.8875 66.223 23.4262V23.4087ZM70.014 17.4675C70.0068 17.2024 70.0818 16.9413 70.2293 16.7173C70.3769 16.4932 70.5904 16.3162 70.8429 16.2088C71.0953 16.1014 71.3752 16.0684 71.6473 16.1139C71.9193 16.1594 72.1711 16.2815 72.3707 16.4646C72.5705 16.6478 72.709 16.8837 72.7689 17.1425C72.8288 17.4013 72.8073 17.6714 72.707 17.9185C72.6069 18.1655 72.4325 18.3784 72.2062 18.5303C71.9799 18.6821 71.7116 18.766 71.4356 18.7712C71.2526 18.7833 71.069 18.7589 70.8963 18.6996C70.7235 18.6402 70.5655 18.5473 70.432 18.4265C70.2985 18.3057 70.1924 18.1597 70.1205 17.9976C70.0485 17.8357 70.0122 17.6611 70.014 17.485V17.4675ZM70.014 19.3925H72.7478V27.425H70.014V19.3925ZM82.6718 23.4087C82.6718 26.0337 81.4598 27.53 79.382 27.53C78.8493 27.5628 78.3188 27.4378 77.8624 27.1718C77.4061 26.9057 77.0458 26.5115 76.8304 26.0425H76.7757V29.9975H74.0419V19.375H76.7757V20.81H76.8304C77.0358 20.3332 77.3892 19.9288 77.8425 19.6517C78.2958 19.3745 78.827 19.2382 79.3638 19.2612C81.4598 19.2962 82.7082 20.8012 82.7082 23.4262L82.6718 23.4087ZM79.9379 23.4087C79.9379 22.1312 79.3274 21.3175 78.3705 21.3175C77.4136 21.3175 76.8031 22.14 76.794 23.4087C76.7848 24.6775 77.4136 25.4912 78.3705 25.4912C79.3274 25.4912 79.9379 24.695 79.9379 23.4262V23.4087ZM87.3649 19.2087C89.634 19.2087 91.0101 20.2412 91.0739 21.895H88.5861C88.5861 21.3262 88.094 20.9675 87.3376 20.9675C86.5812 20.9675 86.244 21.2475 86.244 21.6587C86.244 22.07 86.5448 22.2012 87.1553 22.3237L88.905 22.665C90.5727 23.0062 91.2835 23.6537 91.2835 24.87C91.2835 26.5325 89.7069 27.6 87.3832 27.6C85.0594 27.6 83.5375 26.5325 83.419 24.8962H86.0527C86.1347 25.4912 86.6268 25.8412 87.4287 25.8412C88.2307 25.8412 88.5952 25.5875 88.5952 25.1675C88.5952 24.7475 88.34 24.66 87.6839 24.5287L86.1073 24.205C84.4761 23.8812 83.6195 23.05 83.6195 21.825C83.6378 20.25 85.1049 19.2262 87.3649 19.2262V19.2087ZM100.405 27.4075H97.7719V25.9112H97.7172C97.5723 26.4136 97.2533 26.8533 96.8123 27.1573C96.3712 27.4613 95.8354 27.6114 95.2932 27.5825C94.8778 27.6051 94.4622 27.542 94.0745 27.3972C93.6867 27.2523 93.3359 27.0294 93.0456 26.7432C92.7554 26.4571 92.5324 26.1143 92.392 25.7383C92.2514 25.3623 92.1967 24.9618 92.2312 24.5637V19.375H94.9651V23.96C94.9651 24.9137 95.4754 25.4212 96.3229 25.4212C96.5216 25.4216 96.7184 25.3812 96.8998 25.3028C97.0802 25.2243 97.2424 25.1095 97.3736 24.9661C97.5039 24.8227 97.6024 24.6541 97.6598 24.4716C97.7172 24.289 97.7345 24.0967 97.7081 23.9075V19.375H100.442L100.405 27.4075ZM101.727 19.375H104.37V20.9237H104.424C104.569 20.428 104.882 19.9925 105.312 19.6853C105.742 19.3782 106.267 19.2167 106.803 19.2262C107.349 19.1843 107.89 19.341 108.321 19.6653C108.751 19.9896 109.039 20.4575 109.127 20.9762H109.181C109.346 20.452 109.689 19.9956 110.154 19.6788C110.619 19.3619 111.181 19.2027 111.751 19.2262C112.123 19.2142 112.493 19.2775 112.837 19.4119C113.183 19.5462 113.493 19.7488 113.751 20.0062C114.009 20.2637 114.208 20.5704 114.335 20.9063C114.46 21.2422 114.512 21.6 114.485 21.9562V27.425H111.751V22.6562C111.751 21.7812 111.341 21.3787 110.575 21.3787C110.405 21.3773 110.236 21.4111 110.08 21.4778C109.924 21.5445 109.784 21.6425 109.671 21.7652C109.558 21.888 109.474 22.0325 109.424 22.1892C109.373 22.346 109.36 22.5112 109.382 22.6737V27.425H106.785V22.6212C106.785 21.8162 106.374 21.3787 105.627 21.3787C105.455 21.3788 105.284 21.414 105.127 21.482C104.969 21.5501 104.828 21.6494 104.714 21.7734C104.599 21.8973 104.514 22.0433 104.462 22.2016C104.411 22.3598 104.394 22.5266 104.415 22.6912V27.425H101.681L101.727 19.375Z" fill="#B4B7C9"/>
<path d="M29.9536 17.2925C29.4899 16.2743 28.8761 15.3255 28.131 14.475C27.0297 13.1803 25.6553 12.1242 24.0983 11.3763C22.5413 10.6284 20.8369 10.2055 19.0974 10.1356C17.3579 10.0657 15.6228 10.3503 14.006 10.9706C12.3894 11.591 10.9279 12.5331 9.71768 13.7349C8.50751 14.9367 7.57613 16.3709 6.98483 17.9433C6.39354 19.5156 6.15574 21.1903 6.2871 22.8572C6.41846 24.5241 6.91598 26.1454 7.74693 27.6144C8.57788 29.0834 9.72342 30.3668 11.1081 31.38C11.9966 32.0432 12.9784 32.5823 14.0243 32.9813C15.4905 33.5583 17.0599 33.8554 18.6445 33.8563C21.9155 33.8494 25.0501 32.5974 27.3615 30.3749C29.6727 28.1524 30.9719 25.1408 30.9743 22C30.9766 20.38 30.6292 18.7771 29.9536 17.2925ZM18.6354 12.5413C20.0585 12.5411 21.4643 12.8398 22.7544 13.4163C22.4398 13.5468 22.109 13.638 21.7702 13.6875C20.6554 13.8425 19.6226 14.3395 18.826 15.1043C18.0295 15.8691 17.5119 16.8608 17.3505 17.9313C17.2797 18.5316 16.9952 19.0901 16.5453 19.5126C16.0954 19.935 15.5076 20.1954 14.8809 20.25C13.766 20.405 12.7332 20.902 11.9367 21.6668C11.1401 22.4317 10.6225 23.4233 10.4611 24.4938C10.4065 25.0646 10.1528 25.6011 9.74121 26.0163C9.03099 24.5754 8.71195 22.9854 8.81376 21.3943C8.91557 19.8032 9.43492 18.2626 10.3235 16.916C11.2121 15.5695 12.441 14.4606 13.8959 13.6926C15.3507 12.9247 16.9843 12.5226 18.6445 12.5238L18.6354 12.5413ZM11.099 28.125C11.2084 28.0288 11.3177 27.9413 11.4271 27.8363C12.2378 27.0816 12.7582 26.0853 12.9034 25.01C12.9622 24.4056 13.2433 23.841 13.6962 23.4175C14.1321 22.982 14.7187 22.7143 15.3456 22.665C16.4605 22.5101 17.4933 22.0131 18.2898 21.2482C19.0864 20.4834 19.604 19.4918 19.7654 18.4213C19.8048 17.7891 20.0873 17.1935 20.5582 16.75C21.0048 16.3229 21.597 16.065 22.2259 16.0238C23.2501 15.8885 24.2053 15.4513 24.9597 14.7725C25.8188 15.4568 26.5466 16.2801 27.1104 17.205C27.0758 17.2499 27.036 17.291 26.9919 17.3275C26.557 17.767 25.9711 18.0405 25.3425 18.0975C24.2264 18.2498 23.1921 18.7459 22.395 19.5112C21.598 20.2765 21.0813 21.2697 20.9227 22.3413C20.8585 22.9436 20.5794 23.5062 20.1326 23.9335C19.6858 24.361 19.099 24.6269 18.4714 24.6863C17.3532 24.84 16.3166 25.3361 15.5154 26.1005C14.7143 26.8651 14.1913 27.8574 14.0243 28.93C13.9752 29.3576 13.8222 29.7683 13.5777 30.1288C12.6427 29.5957 11.8054 28.9188 11.099 28.125ZM18.6354 31.5025C17.7107 31.5035 16.7904 31.3798 15.9015 31.135C16.2056 30.5908 16.4033 29.9976 16.4847 29.385C16.5486 28.784 16.8265 28.2225 17.2714 27.7953C17.7163 27.3682 18.301 27.1014 18.927 27.04C20.0435 26.8868 21.0784 26.3906 21.8768 25.6256C22.675 24.8607 23.194 23.868 23.3559 22.7963C23.4198 22.1952 23.6976 21.6338 24.1425 21.2066C24.5874 20.7794 25.1722 20.5126 25.7981 20.4513C26.6383 20.3464 27.4392 20.046 28.131 19.5763C28.5152 20.9744 28.5607 22.4385 28.2641 23.8562C27.9675 25.2738 27.3365 26.6075 26.4197 27.7547C25.503 28.9019 24.3248 29.8322 22.9753 30.4743C21.626 31.1164 20.1414 31.4532 18.6354 31.4588V31.5025Z" fill="#B4B7C9"/>
</g>
<defs>
<filter id="filter0_d_20005153_1356" x="0" y="0" width="121" height="52" filterUnits="userSpaceOnUse" color-interpolation-filters="sRGB">
<feFlood flood-opacity="0" result="BackgroundImageFix"/>
<feColorMatrix in="SourceAlpha" type="matrix" values="0 0 0 0 0 0 0 0 0 0 0 0 0 0 0 0 0 0 127 0" result="hardAlpha"/>
<feOffset dy="4"/>
<feGaussianBlur stdDeviation="2"/>
<feComposite in2="hardAlpha" operator="out"/>
<feColorMatrix type="matrix" values="0 0 0 0 0 0 0 0 0 0 0 0 0 0 0 0 0 0 0.25 0"/>
<feBlend mode="normal" in2="BackgroundImageFix" result="effect1_dropShadow_20005153_1356"/>
<feBlend mode="normal" in="SourceGraphic" in2="effect1_dropShadow_20005153_1356" result="shape"/>
</filter>
</defs>
</svg>
